<?xml version="1.0" encoding="utf-8"?>
<!-- Generator: Adobe Illustrator 16.0.0, SVG Export Plug-In . SVG Version: 6.00 Build 0)  -->
<!DOCTYPE svg PUBLIC "-//W3C//DTD SVG 1.1//EN" "http://www.w3.org/Graphics/SVG/1.1/DTD/svg11.dtd">
<svg version="1.1" id="Calque_1" xmlns="http://www.w3.org/2000/svg" xmlns:xlink="http://www.w3.org/1999/xlink" x="0px" y="0px"
	 width="262.6px" height="187.1px" viewBox="0 0 262.6 187.1" style="enable-background:new 0 0 262.6 187.1;" xml:space="preserve"
	>
<style type="text/css">
<![CDATA[
	.st0{fill:#FFFFFF;}
	.st1{font-family:'FranklinGothicLT-HeavyItal';}
	.st2{font-size:35;}
	.st3{fill:#DD0F37;}
]]>
</style>
<g>
	<g>
		<text transform="matrix(0.9926 -0.1219 0.1219 0.9926 124.1221 102.6919)" class="st1 st2"> </text>
		<g>
			<path d="M141.1,100.5l-15.8,1.9l1-23.6l7-0.9l-0.8,18l8.8-1.1L141.1,100.5z"/>
			<path d="M147.5,92.3c0,0.1,0,0.3,0,0.5c0,0.2,0,0.4,0,0.6c0.1,0.4,0.2,0.8,0.4,1c0.2,0.3,0.4,0.5,0.7,0.7
				c0.3,0.2,0.6,0.3,0.9,0.3s0.6,0,0.9,0c0.5-0.1,0.9-0.2,1.2-0.4c0.3-0.2,0.6-0.4,0.8-0.7c0.2-0.2,0.4-0.5,0.5-0.8
				c0.1-0.3,0.2-0.5,0.2-0.6l5.9,0.2c-0.1,0.3-0.2,0.6-0.4,1c-0.2,0.4-0.4,0.8-0.7,1.2c-0.3,0.4-0.6,0.9-1.1,1.3
				c-0.4,0.5-1,0.9-1.7,1.4c-0.4,0.3-1,0.6-1.7,1c-0.8,0.4-1.7,0.6-2.9,0.8c-1.3,0.2-2.4,0.1-3.5-0.1c-1.1-0.2-2.1-0.7-2.9-1.3
				c-0.8-0.6-1.5-1.4-2.1-2.3c-0.6-1-0.9-2.1-1.1-3.3c-0.2-1.3-0.1-2.6,0.2-3.8c0.3-1.2,0.9-2.4,1.6-3.4c0.8-1,1.7-1.9,2.9-2.6
				s2.5-1.1,4.1-1.3c1.4-0.2,2.6-0.1,3.8,0.2c1.1,0.3,2.1,0.8,2.9,1.4c0.8,0.7,1.5,1.5,2,2.4c0.5,1,0.8,2,1,3.2c0,0.4,0.1,0.7,0.1,1
				c0,0.3,0,0.6,0,0.9L147.5,92.3z M152.7,88.3c0-0.1,0-0.3,0-0.4c0-0.2,0-0.3,0-0.4c0-0.2-0.1-0.5-0.2-0.7
				c-0.1-0.3-0.3-0.5-0.5-0.7c-0.2-0.2-0.4-0.4-0.7-0.5c-0.3-0.1-0.6-0.2-1.1-0.1c-0.1,0-0.3,0.1-0.6,0.1c-0.3,0.1-0.6,0.2-0.9,0.5
				c-0.3,0.2-0.5,0.6-0.8,1c-0.2,0.5-0.4,1-0.4,1.8L152.7,88.3z"/>
			<path d="M182.5,77.4c-0.3,0-0.6,0-0.8,0c-0.2,0-0.5,0-0.7,0.1c-0.9,0.1-1.5,0.3-1.8,0.7c-0.3,0.4-0.5,0.7-0.6,1
				c0.3,0.2,0.6,0.3,1,0.5c0.3,0.2,0.7,0.4,0.9,0.7c0.3,0.3,0.5,0.6,0.8,1.1c0.2,0.4,0.4,0.9,0.4,1.5c0.1,0.9,0,1.7-0.3,2.5
				c-0.3,0.8-0.7,1.4-1.2,1.9c-0.3,0.2-0.5,0.5-0.8,0.7c-0.3,0.2-0.7,0.4-1.1,0.6c-0.4,0.2-1,0.4-1.6,0.5c-0.6,0.1-1.4,0.3-2.2,0.4
				c-0.1,0-0.3,0-0.6,0c-0.3,0-0.6,0-0.9,0.1c-0.3,0-0.6,0-0.9,0.1c-0.3,0-0.5,0-0.5,0c-0.4,0.1-0.8,0.2-1,0.5
				c-0.2,0.3-0.3,0.6-0.3,0.9c0,0.2,0.1,0.4,0.2,0.5c0.1,0.1,0.3,0.2,0.5,0.3c0.2,0,0.3,0.1,0.5,0.1c0.2,0,0.3,0,0.3,0l5.2-0.5
				c0.8-0.1,1.5,0,2.2,0.1s1.3,0.4,1.8,0.7c0.5,0.3,1,0.8,1.3,1.3c0.3,0.5,0.6,1.1,0.7,1.9c0.1,0.6,0,1.1-0.1,1.6
				c-0.1,0.5-0.3,1-0.5,1.5s-0.5,0.9-0.9,1.2c-0.3,0.4-0.7,0.7-1.1,0.9c-0.3,0.2-0.6,0.4-1,0.5c-0.4,0.2-0.8,0.4-1.3,0.5
				c-0.5,0.2-1.1,0.3-1.9,0.5c-0.7,0.2-1.6,0.3-2.5,0.4c-1.5,0.2-2.9,0.3-4,0.3c-1.1,0-2.1-0.1-3-0.4c-0.7-0.2-1.3-0.6-1.8-1.1
				s-0.8-1.1-0.9-1.8c-0.1-0.5,0-0.9,0.1-1.3c0.1-0.4,0.4-0.7,0.6-1s0.6-0.5,0.9-0.7c0.3-0.2,0.7-0.4,1-0.6
				c-0.4-0.2-0.8-0.5-1.2-0.9c-0.4-0.4-0.7-0.9-0.8-1.7c-0.2-1.9,1-3.4,3.7-4.6c-0.2-0.1-0.4-0.2-0.7-0.3c-0.3-0.1-0.6-0.3-0.9-0.6
				c-0.3-0.3-0.6-0.6-0.8-1c-0.2-0.4-0.4-0.9-0.5-1.6c-0.1-0.9,0-1.8,0.5-2.7c0.4-0.9,1-1.5,1.7-2c0.8-0.6,1.7-1,2.8-1.3
				c1-0.3,2-0.5,3-0.6c0.6-0.1,1.2-0.1,1.5-0.1c0.4,0,0.7,0,1.2,0.1c0-0.5,0.1-1,0.2-1.5c0.1-0.6,0.3-1.1,0.6-1.7
				c0.3-0.5,0.8-1,1.4-1.4c0.6-0.4,1.5-0.7,2.5-0.8c0.3,0,0.6-0.1,0.9-0.1c0.3,0,0.6,0,0.8,0L182.5,77.4z M177.4,97.2
				c0-0.2-0.1-0.4-0.2-0.5s-0.3-0.2-0.5-0.2c-0.3,0-0.6,0-1,0c-0.4,0-1,0.1-1.6,0.1c-0.8,0.1-1.4,0.1-1.8,0.2
				c-0.4,0-0.8,0.1-1.1,0.1c-0.3,0-0.5,0-0.7,0c-0.2,0-0.3,0-0.5,0c-0.2,0.2-0.4,0.3-0.6,0.5c-0.2,0.2-0.3,0.4-0.2,0.8
				c0,0.3,0.2,0.5,0.6,0.7c0.4,0.1,0.8,0.2,1.2,0.2c0.5,0,1,0,1.4,0c0.5,0,0.9-0.1,1.1-0.1c0.8-0.1,1.4-0.2,1.9-0.3
				c0.5-0.1,0.9-0.2,1.2-0.4c0.3-0.1,0.5-0.3,0.6-0.5C177.3,97.6,177.4,97.4,177.4,97.2z M175.7,84c0-0.3,0-0.5-0.1-0.8
				c-0.1-0.3-0.2-0.5-0.3-0.7c-0.2-0.2-0.4-0.3-0.7-0.4c-0.3-0.1-0.6-0.1-1-0.1c-0.6,0.1-1,0.2-1.3,0.5c-0.3,0.3-0.5,0.6-0.6,0.9
				c-0.1,0.3-0.2,0.6-0.2,0.9c0,0.3,0,0.5,0,0.6c0.1,0.6,0.3,1,0.8,1.3c0.4,0.2,0.9,0.3,1.4,0.2c0.4-0.1,0.8-0.2,1-0.4
				c0.3-0.2,0.5-0.4,0.6-0.6c0.1-0.2,0.3-0.5,0.3-0.8C175.7,84.4,175.7,84.2,175.7,84z"/>
			<path d="M200.1,83.3c0.2,1.8,0.1,3.4-0.3,4.8c-0.5,1.4-1.1,2.6-2,3.5c-0.9,1-1.9,1.7-3,2.2c-1.1,0.5-2.3,0.9-3.5,1
				c-1.1,0.1-2.1,0.1-3.2-0.1c-1-0.2-2-0.6-2.9-1.1c-0.9-0.6-1.6-1.3-2.2-2.2c-0.6-0.9-1-2.1-1.2-3.5c-0.2-1.5-0.1-2.9,0.3-4.2
				c0.4-1.3,0.9-2.4,1.7-3.4s1.8-1.8,2.9-2.4c1.2-0.6,2.4-1,3.9-1.2c1.5-0.2,2.7-0.1,3.9,0.2c1.1,0.3,2.1,0.8,2.9,1.4
				c0.8,0.6,1.4,1.4,1.9,2.3S200,82.3,200.1,83.3z M188.7,88.2c0,0.3,0.1,0.5,0.2,0.8c0.1,0.3,0.2,0.6,0.4,0.8
				c0.2,0.3,0.4,0.5,0.7,0.6c0.3,0.2,0.7,0.2,1.1,0.1c0.3,0,0.7-0.2,1-0.4c0.3-0.2,0.6-0.6,0.8-1.3c0.1-0.3,0.2-0.8,0.3-1.2
				s0.1-1,0.2-1.5c0-0.5,0-1.1,0-1.6c0-0.5,0-1-0.1-1.5c0-0.2-0.1-0.5-0.1-0.8c-0.1-0.3-0.2-0.6-0.4-0.9c-0.2-0.3-0.4-0.5-0.7-0.6
				c-0.3-0.2-0.7-0.2-1.1-0.2c-0.4,0-0.7,0.2-0.9,0.3c-0.2,0.2-0.4,0.4-0.6,0.6c-0.1,0.2-0.3,0.5-0.3,0.7c-0.1,0.2-0.1,0.4-0.1,0.6
				c-0.1,0.3-0.1,0.7-0.2,1.2c-0.1,0.5-0.1,1-0.1,1.5c0,0.5,0,1,0,1.4C188.6,87.5,188.6,87.9,188.7,88.2z"/>
			<path d="M217.5,91.1l-6.1,0.8l0.1-3.3c-0.1,0.3-0.3,0.7-0.6,1.2c-0.2,0.5-0.6,0.9-1,1.3s-0.9,0.8-1.5,1.2
				c-0.6,0.3-1.3,0.6-2.2,0.7c-0.9,0.1-1.6,0.1-2.3-0.1c-0.6-0.2-1.2-0.5-1.6-0.8c-0.4-0.4-0.7-0.8-0.9-1.2
				c-0.2-0.5-0.4-0.9-0.4-1.4c0-0.2,0-0.4,0-0.7c0-0.3,0-0.5,0-0.8c0-0.3,0-0.5,0-0.8c0-0.2,0-0.4,0-0.5l0.5-10.9l6.6-0.8l-0.4,10
				c0,0.3,0,0.6,0,0.9c0,0.3,0,0.6,0,0.8c0,0.1,0,0.2,0.1,0.3c0,0.1,0.1,0.3,0.2,0.4c0.1,0.1,0.2,0.2,0.4,0.3
				c0.2,0.1,0.4,0.1,0.7,0.1c0.5-0.1,0.8-0.2,1.1-0.5c0.3-0.3,0.5-0.7,0.7-1.1s0.3-0.9,0.4-1.4c0.1-0.5,0.1-1.1,0.2-1.6l0.4-8.7
				l6.5-0.8L217.5,91.1z M212.9,71.5l-2.8-1.9l-3,2.6l-3.8,0.1l7-6.3l6.5,4.6L212.9,71.5z"/>
			<path d="M230.6,76.4l-3.1,0.4l-0.3,6.3c0,0.2,0,0.4,0,0.6c0,0.2,0,0.4,0,0.5c0.1,0.5,0.3,0.9,0.7,1c0.4,0.1,0.7,0.1,1.1,0.1
				c0.3,0,0.6-0.1,0.9-0.2c0.3-0.1,0.5-0.2,0.7-0.2l-0.2,4.6c-0.5,0.1-0.9,0.3-1.5,0.4c-0.5,0.1-1.2,0.3-2,0.4
				c-0.6,0.1-1.2,0.1-1.7,0.1c-0.5,0-0.9-0.1-1.2-0.2c-0.4-0.1-0.7-0.2-0.9-0.4c-0.3-0.2-0.5-0.4-0.8-0.6c-0.3-0.3-0.6-0.6-0.8-1
				c-0.2-0.4-0.4-1-0.5-1.8c0-0.1,0-0.2,0-0.2c0-0.1,0-0.3,0-0.4c0-0.2,0-0.4,0-0.7c0-0.3,0-0.7,0-1.2l0.3-6.3l-2.4,0.3l0.2-4.4
				l2.8-0.3l0.6-4.8l5.5-1.2l-0.2,5.3l3.1-0.4L230.6,76.4z"/>
		</g>
		<g>
			<path d="M141.6,128.9l-6.1,0.7l0.1-2.7c-0.4,0.8-0.9,1.5-1.4,2c-0.5,0.5-0.9,0.9-1.4,1.1c-0.5,0.2-0.8,0.4-1.2,0.5
				c-0.3,0.1-0.6,0.1-0.7,0.1c-0.4,0.1-1,0-1.7-0.1c-0.7-0.1-1.3-0.4-2-0.8c-0.7-0.4-1.3-1.1-1.8-1.9s-0.9-2-1.1-3.4
				c-0.2-1.2-0.1-2.6,0.1-3.9c0.2-1.4,0.6-2.6,1.1-3.8c0.6-1.2,1.3-2.2,2.3-3c0.9-0.8,2.1-1.3,3.4-1.5c0.7-0.1,1.4-0.1,1.9,0
				c0.5,0.1,0.9,0.2,1.3,0.4c0.3,0.2,0.6,0.4,0.8,0.7c0.2,0.3,0.4,0.5,0.6,0.8l0.3-8.2l6.5-0.8L141.6,128.9z M135.6,118.5
				c0-0.5-0.1-1-0.2-1.3c-0.2-0.3-0.4-0.5-0.6-0.6c-0.2-0.1-0.5-0.2-0.7-0.2c-0.2,0-0.4,0-0.5,0c-0.5,0.1-1,0.3-1.3,0.7
				c-0.3,0.4-0.6,0.9-0.8,1.5c-0.1,0.4-0.2,0.8-0.2,1.3s-0.1,1-0.1,1.6c0,0.5,0,1,0,1.4c0,0.4,0,0.8,0.1,1c0,0.1,0,0.3,0.1,0.5
				c0.1,0.3,0.2,0.5,0.3,0.8c0.1,0.3,0.3,0.5,0.6,0.6c0.3,0.2,0.6,0.2,1.1,0.2c0.4-0.1,0.8-0.2,1-0.4c0.3-0.2,0.5-0.5,0.6-0.7
				c0.2-0.3,0.3-0.5,0.3-0.8c0.1-0.3,0.1-0.5,0.1-0.7L135.6,118.5z"/>
			<path d="M150.2,109.2l-3.2,5.5l-2.6,0.3l2.5-4.9l-2.3,0.3l0.2-5.4l5.6-0.7L150.2,109.2z"/>
			<path d="M155.6,119.8c0,0.1,0,0.3,0,0.5c0,0.2,0,0.4,0,0.6c0.1,0.4,0.2,0.8,0.4,1s0.4,0.5,0.7,0.7c0.3,0.2,0.6,0.3,0.9,0.3
				c0.3,0,0.6,0,0.9,0c0.5-0.1,0.9-0.2,1.2-0.4c0.3-0.2,0.6-0.4,0.8-0.7c0.2-0.2,0.4-0.5,0.5-0.8s0.2-0.5,0.2-0.6l5.9,0.2
				c-0.1,0.3-0.2,0.6-0.4,1c-0.2,0.4-0.4,0.8-0.7,1.2c-0.3,0.4-0.6,0.9-1.1,1.3c-0.4,0.5-1,0.9-1.7,1.4c-0.4,0.3-1,0.6-1.8,1
				c-0.8,0.4-1.7,0.6-2.9,0.8c-1.3,0.2-2.4,0.1-3.5-0.1c-1.1-0.2-2.1-0.7-2.9-1.3c-0.8-0.6-1.5-1.4-2.1-2.3c-0.6-1-0.9-2.1-1.1-3.3
				c-0.2-1.3-0.1-2.6,0.2-3.8c0.3-1.2,0.9-2.4,1.6-3.4c0.8-1,1.7-1.9,2.9-2.6c1.2-0.7,2.5-1.1,4.1-1.3c1.4-0.2,2.6-0.1,3.8,0.2
				c1.1,0.3,2.1,0.8,2.9,1.4c0.8,0.7,1.5,1.5,2,2.4c0.5,1,0.8,2,1,3.2c0,0.4,0.1,0.7,0.1,1c0,0.3,0,0.6,0,0.9L155.6,119.8z
				 M160.8,115.8c0-0.1,0-0.3,0-0.4s0-0.3,0-0.4c0-0.2-0.1-0.5-0.2-0.7c-0.1-0.3-0.3-0.5-0.5-0.7c-0.2-0.2-0.4-0.4-0.7-0.5
				c-0.3-0.1-0.6-0.2-1.1-0.1c-0.1,0-0.3,0.1-0.6,0.1s-0.6,0.2-0.9,0.5c-0.3,0.2-0.5,0.6-0.8,1s-0.4,1-0.4,1.8L160.8,115.8z"/>
			<path d="M174.8,107.5l-0.1,2.8c0.1-0.3,0.2-0.7,0.4-1.1c0.2-0.4,0.5-0.8,1-1.2c0.6-0.5,1.3-0.9,2-1.2s1.3-0.4,1.8-0.4
				c1.5-0.2,2.8,0.1,3.7,0.7c1,0.7,1.5,1.6,1.7,2.9c0,0.2,0,0.4,0.1,0.8s0,0.7,0,1l-0.5,11.9l-6.5,0.8l0.4-10.5c0-0.2,0-0.4,0-0.7
				c0-0.3,0-0.5,0-0.7c0-0.3-0.2-0.6-0.4-0.9c-0.2-0.3-0.7-0.4-1.3-0.3c-0.8,0.1-1.3,0.4-1.6,1s-0.5,1.2-0.5,2.1l-0.5,10.5l-6.4,0.8
				l0.8-17.5L174.8,107.5z"/>
			<path d="M204.3,108.3l-4.3,0.5l-0.6,13l-6.3,0.8l0.6-13l-2.8,0.3l0.2-4.5l2.8-0.3c0-1.2,0.1-2.1,0.3-3c0.1-0.8,0.5-1.6,1.1-2.3
				c0.4-0.5,0.8-0.9,1.3-1.2c0.5-0.3,1-0.6,1.5-0.8c0.5-0.2,1-0.4,1.5-0.5c0.5-0.1,0.9-0.2,1.3-0.2c0.7-0.1,1.4-0.1,2.3-0.1
				c0.8,0,1.6,0.1,2.3,0.2l0.1,4.2c-0.5,0-1,0-1.5,0c-0.5,0-0.9,0-1.3,0.1c-0.6,0.1-1.1,0.2-1.4,0.4c-0.3,0.2-0.6,0.4-0.8,0.6
				c-0.2,0.2-0.3,0.5-0.3,0.9c0,0.3-0.1,0.7-0.1,1.2l4.2-0.5L204.3,108.3z"/>
			<path d="M204.6,108.2c0.1-0.4,0.3-0.9,0.6-1.5c0.3-0.6,0.7-1.2,1.3-1.8c0.6-0.6,1.5-1.1,2.5-1.6c1.1-0.5,2.5-0.8,4.2-1.1
				c0.6-0.1,1.4-0.1,2.3-0.1c0.9,0,1.8,0.1,2.7,0.3c0.9,0.2,1.6,0.7,2.3,1.3c0.7,0.6,1.1,1.4,1.2,2.6c0,0.3,0,0.7,0,1.3
				c0,0.6,0,1.3-0.1,2c0,0.8-0.1,1.6-0.1,2.4c0,0.8-0.1,1.6-0.1,2.4s-0.1,1.4-0.1,2c0,0.6,0,1,0,1.3c0,0.3,0.1,0.6,0.2,0.8
				c0.1,0.2,0.1,0.5,0.2,0.7l-6.7,0.8c-0.1-0.2-0.1-0.3-0.1-0.5c0-0.2,0-0.3,0-0.4c0-0.2,0-0.4-0.1-0.7c0-0.3,0-0.7,0-1.3
				c-0.2,0.3-0.3,0.7-0.6,1.1c-0.2,0.4-0.6,0.8-1,1.2c-0.4,0.4-0.9,0.7-1.5,1c-0.6,0.3-1.3,0.5-2.2,0.6c-0.7,0.1-1.5,0.1-2.1-0.1
				c-0.7-0.1-1.3-0.4-1.9-0.8c-0.6-0.4-1-0.8-1.4-1.4c-0.4-0.6-0.6-1.2-0.7-2c-0.1-0.5,0-1,0-1.6s0.3-1.2,0.6-1.7s0.8-1.2,1.4-1.7
				c0.6-0.5,1.5-1,2.5-1.4c0.4-0.1,0.7-0.3,1-0.3c0.3-0.1,0.6-0.2,1.1-0.3c0.4-0.1,1-0.2,1.8-0.4c0.7-0.2,1.8-0.4,3.1-0.7
				c0-0.2,0.1-0.3,0.1-0.5c0-0.2,0-0.3,0-0.5c0-0.3-0.2-0.6-0.5-0.9c-0.3-0.3-0.9-0.4-1.6-0.3c-0.5,0.1-0.9,0.2-1.2,0.4
				c-0.3,0.2-0.6,0.4-0.8,0.6c-0.2,0.2-0.3,0.5-0.5,0.7c-0.1,0.2-0.2,0.4-0.2,0.6L204.6,108.2z M212.2,116.5c0.2,0,0.6-0.1,1-0.3
				c0.4-0.2,0.8-0.6,1.1-1.1c0.3-0.5,0.4-1,0.5-1.6c0-0.6,0.1-1.2,0.1-1.8c-0.5,0.1-1,0.2-1.5,0.4c-0.5,0.2-1,0.4-1.5,0.6
				c-0.4,0.3-0.8,0.6-1.1,1c-0.3,0.4-0.4,0.9-0.3,1.5c0.1,0.5,0.3,0.9,0.6,1C211.5,116.5,211.9,116.6,212.2,116.5z"/>
			<path d="M230.2,118.1l-6.6,0.8l0.7-17.5l6.7-0.8L230.2,118.1z M231,99l-6.6,0.8l0.2-5.1l6.6-0.8L231,99z"/>
			<path d="M238.9,99.6l-0.2,4.2c0.1-0.4,0.3-0.9,0.5-1.5c0.2-0.6,0.5-1.1,0.8-1.6c0.4-0.5,0.8-1,1.4-1.4c0.6-0.4,1.3-0.7,2.2-0.8
				c0.1,0,0.2,0,0.3,0s0.3,0,0.5,0l0,6.2c-0.4,0-0.7,0-0.8,0.1c-0.1,0-0.3,0-0.4,0c-0.4,0.1-0.9,0.1-1.3,0.3
				c-0.5,0.1-0.9,0.3-1.2,0.7s-0.7,0.8-0.9,1.5c-0.3,0.6-0.4,1.5-0.5,2.6l-0.3,7.1l-6.5,0.8l0.8-17.5L238.9,99.6z"/>
			<path d="M250.8,108.1c0,0.1,0,0.3,0,0.5c0,0.2,0,0.4,0,0.6c0.1,0.4,0.2,0.8,0.4,1c0.2,0.3,0.4,0.5,0.7,0.7
				c0.3,0.2,0.6,0.3,0.9,0.3s0.6,0,0.9,0c0.5-0.1,0.9-0.2,1.2-0.4c0.3-0.2,0.6-0.4,0.8-0.7c0.2-0.2,0.4-0.5,0.5-0.8
				c0.1-0.3,0.2-0.5,0.2-0.6l5.9,0.2c-0.1,0.3-0.2,0.6-0.4,1c-0.2,0.4-0.4,0.8-0.7,1.2c-0.3,0.4-0.6,0.9-1.1,1.3
				c-0.4,0.5-1,0.9-1.7,1.4c-0.4,0.3-1,0.6-1.7,1c-0.8,0.4-1.7,0.6-2.9,0.8c-1.3,0.2-2.4,0.1-3.5-0.1c-1.1-0.2-2.1-0.7-2.9-1.3
				c-0.8-0.6-1.5-1.4-2.1-2.3c-0.6-1-0.9-2.1-1.1-3.3c-0.2-1.3-0.1-2.6,0.2-3.8c0.3-1.2,0.9-2.4,1.6-3.4c0.8-1,1.7-1.9,2.9-2.6
				s2.5-1.1,4.1-1.3c1.4-0.2,2.6-0.1,3.8,0.2s2.1,0.8,2.9,1.4c0.8,0.7,1.5,1.5,2,2.4c0.5,1,0.8,2,1,3.2c0,0.4,0.1,0.7,0.1,1
				c0,0.3,0,0.6,0,0.9L250.8,108.1z M256,104.1c0-0.1,0-0.3,0-0.4c0-0.2,0-0.3,0-0.4c0-0.2-0.1-0.5-0.2-0.7
				c-0.1-0.3-0.3-0.5-0.5-0.7s-0.4-0.4-0.7-0.5c-0.3-0.1-0.6-0.2-1.1-0.1c-0.1,0-0.3,0.1-0.6,0.1c-0.3,0.1-0.6,0.2-0.9,0.5
				c-0.3,0.2-0.5,0.6-0.8,1s-0.4,1-0.4,1.8L256,104.1z"/>
		</g>
		<g>
			<path d="M132.4,138.6l-0.1,2.8c0.2-0.4,0.4-0.8,0.6-1.2c0.2-0.4,0.5-0.8,0.8-1.1c0.3-0.4,0.7-0.7,1.2-0.9
				c0.5-0.3,1.1-0.4,1.8-0.5c0.9-0.1,1.7,0,2.4,0.2c0.8,0.2,1.4,0.6,2,1.2c0.6,0.5,1.1,1.3,1.5,2.1c0.4,0.9,0.7,1.9,0.8,3.1
				c0.1,1.1,0.1,2.2,0,3.5c-0.2,1.3-0.5,2.5-1,3.6c-0.5,1.1-1.3,2.1-2.2,3c-0.9,0.8-2.1,1.3-3.5,1.5c-0.7,0.1-1.3,0.1-1.8,0
				c-0.5-0.1-0.9-0.3-1.3-0.4c-0.4-0.2-0.7-0.4-0.9-0.7c-0.2-0.3-0.5-0.5-0.7-0.7l-0.3,7.6l-6.5,0.8l1-23L132.4,138.6z M132.6,144.8
				c0,0.3,0,0.6-0.1,1.1c0,0.5,0,1-0.1,1.5c0,0.5,0,1,0,1.5c0,0.5,0,0.9,0,1.1c0,0.2,0.1,0.4,0.2,0.7s0.2,0.5,0.4,0.6
				c0.2,0.2,0.4,0.3,0.6,0.4c0.2,0.1,0.5,0.1,0.9,0.1c0.3,0,0.6-0.1,0.8-0.3c0.2-0.2,0.4-0.4,0.5-0.6c0.1-0.2,0.3-0.5,0.3-0.7
				s0.1-0.5,0.2-0.7c0.1-0.3,0.1-0.7,0.2-1.2c0.1-0.5,0.1-0.9,0.1-1.4c0-0.5,0-0.9,0-1.4c0-0.5,0-0.8-0.1-1.1c0-0.2-0.1-0.5-0.1-0.8
				c-0.1-0.3-0.2-0.5-0.3-0.8c-0.2-0.2-0.4-0.4-0.6-0.6c-0.3-0.1-0.6-0.2-1-0.1c-0.4,0-0.7,0.2-0.9,0.3c-0.2,0.2-0.4,0.4-0.6,0.7
				c-0.1,0.3-0.2,0.5-0.3,0.8C132.7,144.3,132.6,144.6,132.6,144.8z"/>
			<path d="M150.8,153.7l-6.5,0.8l1-23.6l6.5-0.8L150.8,153.7z"/>
			<path d="M169.4,151.5l-6.1,0.8l0.1-3.3c-0.1,0.3-0.3,0.7-0.6,1.2c-0.2,0.5-0.6,0.9-1,1.3c-0.4,0.4-0.9,0.8-1.5,1.2
				c-0.6,0.3-1.3,0.6-2.2,0.7c-0.9,0.1-1.6,0.1-2.3-0.1c-0.6-0.2-1.2-0.5-1.6-0.8c-0.4-0.4-0.7-0.8-0.9-1.2
				c-0.2-0.5-0.4-0.9-0.4-1.4c0-0.2,0-0.4,0-0.7c0-0.3,0-0.5,0-0.8c0-0.3,0-0.5,0-0.8c0-0.2,0-0.4,0-0.5l0.5-10.9l6.6-0.8l-0.4,10
				c0,0.3,0,0.6,0,0.9s0,0.6,0,0.8c0,0.1,0,0.2,0.1,0.3c0,0.1,0.1,0.3,0.2,0.4c0.1,0.1,0.2,0.2,0.4,0.3c0.2,0.1,0.4,0.1,0.7,0.1
				c0.5-0.1,0.8-0.2,1.1-0.5s0.5-0.7,0.7-1.1c0.2-0.4,0.3-0.9,0.4-1.4s0.1-1.1,0.2-1.6l0.4-8.7l6.5-0.8L169.4,151.5z"/>
			<path d="M182.2,137.7c-0.4-0.6-0.9-1-1.5-1.2c-0.6-0.1-1.3-0.2-1.9-0.1c-0.5,0.1-1,0.2-1.3,0.4c-0.3,0.2-0.5,0.5-0.4,0.8
				c0.1,0.4,0.3,0.7,0.6,0.8c0.4,0.1,0.9,0.2,1.6,0.2c0.9,0.1,1.6,0.2,2.1,0.2s1,0.1,1.4,0.2c0.4,0.1,0.7,0.1,0.9,0.2
				c0.3,0.1,0.5,0.2,0.8,0.3c1.8,0.8,2.9,2.1,3.1,3.9c0.1,0.5,0,1.1-0.1,1.8c-0.1,0.7-0.5,1.5-1,2.2c-0.5,0.7-1.3,1.4-2.4,2
				c-1.1,0.6-2.5,1-4.3,1.2c-1.2,0.2-2.4,0.2-3.6,0c-1.1-0.1-2.2-0.4-3.2-0.9c-0.9-0.5-1.6-1-1.9-1.6c-0.4-0.6-0.6-1.1-0.8-1.6
				l5.3-1.4c0.1,0.2,0.2,0.3,0.3,0.5c0.1,0.2,0.4,0.4,0.6,0.5s0.6,0.3,1.1,0.4c0.5,0.1,1,0.1,1.8,0c0.9-0.1,1.5-0.3,1.8-0.6
				c0.3-0.3,0.4-0.5,0.4-0.7c0-0.2-0.1-0.3-0.2-0.4s-0.2-0.2-0.5-0.2c-0.2-0.1-0.6-0.1-1.1-0.2c-0.5,0-1.1-0.1-1.8-0.2
				c-0.5-0.1-1.1-0.1-1.8-0.2c-0.7-0.1-1.5-0.3-2.2-0.6c-0.7-0.3-1.3-0.8-1.9-1.4c-0.5-0.6-0.9-1.4-1-2.4c-0.1-0.7,0-1.5,0.2-2.2
				c0.2-0.8,0.6-1.5,1.1-2.1c0.6-0.7,1.3-1.2,2.3-1.7c1-0.5,2.2-0.8,3.6-1c1-0.1,2-0.1,3,0c1,0.1,1.9,0.4,2.9,0.8
				c1,0.4,1.7,0.9,2.1,1.4s0.7,0.9,0.9,1.3L182.2,137.7z"/>
			<path d="M194.7,148.4l-6.4,0.8l0.3-6.3l6.4-0.8L194.7,148.4z"/>
		</g>
	</g>
	<g>
		<g>
			<path class="st3" d="M112.9,154V0H0v187.1l95.4-11.7C95.4,175.4,112.9,172.7,112.9,154"/>
			<path class="st0" d="M48.8,151l-0.4,8c0,0.8-0.1,2.2-1.7,2.4c-0.1,0-0.2,0-0.2,0c-0.4,0-0.7-0.1-1-0.4c-0.4-0.4-0.4-1.2-0.4-1.8
				l0.4-7.9l-6.7,0.8l-0.5,8.8c-0.1,1.7,0.3,3.1,1.3,4.1c1.1,1.2,3,1.9,5.3,1.9c0.4,0,0.9,0,1.4-0.1c6.3-0.8,8.7-4.9,8.9-8.1
				l0.5-8.7L48.8,151z"/>
		</g>
		<polygon class="st0" points="58.4,149.8 57.6,165.2 64.4,164.4 65.2,149 		"/>
		<g>
			<path class="st0" d="M61.3,147c0.2,0,0.4,0,0.6,0c1.9-0.2,3.9-1.4,4.1-4c0-0.8-0.2-1.5-0.6-2c-0.5-0.6-1.3-0.9-2.3-0.8
				c-0.2,0-0.4,0-0.6,0c-2.3,0.3-3.9,1.9-4,3.9c0,0.9,0.2,1.6,0.6,2.1C59.6,146.9,60.6,147,61.3,147"/>
			<path class="st0" d="M100.4,144.7l-6.9,0.9l-4.1,6.5l-0.8,0.1l0.9-16.3l-4.4,0.5c0,0-1.1,0.1-1.8,0.9l0,0
				c-0.7,0.7-0.8,1.9-0.8,1.9l-1.3,23.2l6.8-0.8l0.3-5.9l0.7-0.1l3.1,4.3c0.1,0.1,0.8,1,2.3,1c0.1,0,0.3,0,0.4,0l5.2-0.6l-5.3-7.2
				L100.4,144.7z"/>
			<path class="st0" d="M25.4,162.8c-0.3,0.1-1,0.3-1.4,0.4c-0.2,0-0.3,0-0.4,0c-1,0-1.9-0.4-2.5-1.1c-0.8-0.8-1.2-2.1-1.1-3.4
				c0.1-2.8,2-4.9,4.6-5.2c1.3-0.2,2.4,0.2,3.2,1.1c0.7,0.8,1.1,2,1,3.3c0,0.7-0.2,1.2-0.3,1.7l-5,0.7l1.5,1.4l0.9,0.9L25.4,162.8z
				 M33.7,164.1l0.2-0.3c1.4-2.1,2.2-4.4,2.3-7c0.2-3.1-0.6-5.6-2.2-7.4c-1.7-1.8-4.1-2.7-7.2-2.7c-0.5,0-1.1,0-1.7,0.1
				c-6.9,0.8-12.1,6.3-12.5,13.1c-0.2,3,0.6,5.5,2.3,7.3c1.6,1.8,4.1,2.8,6.9,2.7c0.5,0,0.9,0,1.4-0.1c2.2-0.3,4.2-0.9,5.9-1.8
				l0.2-0.1l1.9,1.9c0,0,0.7,0.9,1.6,1.3c0.6,0.2,1.2,0.3,1.6,0.3c0.2,0,0.4,0,0.4,0l4.9-0.7L33.7,164.1z"/>
			<path class="st0" d="M55.3,90.3c-11.8,0-20.1-13.3-20.1-27.5c0-14.2,8.2-27.5,20.1-27.5c11.8,0,20.1,13.3,20.1,27.5
				C75.3,77.1,67.1,90.3,55.3,90.3 M103.3,104.4c-11.9,8.4-25.4,5.4-33.8,2.1c18-6.1,30.2-23.3,30.2-43.7c0-25.4-19.4-46-44.4-46
				c-25,0-44.4,20.6-44.4,46c0,16.2,7.4,30.4,19.8,38.6c-7.9,2-14,5.6-17.9,9.1l5.4,9c3.2-1.7,13.4-5.7,25.4-1.5
				c13.2,4.7,19.6,9.3,31.9,10c21.4,1.3,27.9-15.3,29.2-22.7L103.3,104.4z"/>
			<polyline class="st0" points="78.5,162.3 78.5,162.3 78.5,162.3 78.5,162.3 			"/>
			<path class="st0" d="M72.8,155.6c0,0.6,0,1.1,0.2,1.5c0.1,0.2,0.2,0.4,0.4,0.6c0.6,0.7,1.6,0.8,2.3,0.8c0.2,0,0.4,0,0.6,0
				c0.9-0.1,1.9-0.5,2.7-1.1l-0.5,4.9c0,0,0,0,0,0c-1.2,0.6-2.5,1-4,1.2c-0.3,0-0.7,0.1-1,0.1c-2,0-3.8-0.7-5-1.9
				c-1.2-1.3-1.7-3.1-1.6-5.2c0.1-1.8,0.7-3.4,1.6-4.8c1.6-2.4,4.2-4.1,7.3-4.5c0.4-0.1,0.8-0.1,1.2-0.1c1,0,1.8,0.1,2.6,0.4
				l-0.3,4.7c-0.5-0.3-1.2-0.5-1.9-0.5c-0.2,0-0.4,0-0.6,0c-0.5,0.1-1,0.2-1.4,0.4C73.9,152.6,72.9,154,72.8,155.6"/>
			<path class="st0" d="M102.3,125.6c0.3,0,0.5-0.1,0.5-0.4c0-0.2-0.2-0.4-0.5-0.4h-0.6v0.7H102.3z M101.2,124.6
				c0-0.2,0.1-0.3,0.3-0.3h0.9c0.6,0,1.1,0.3,1.1,0.9c0,0.4-0.2,0.7-0.5,0.8l0.4,0.5c0.1,0.1,0.1,0.1,0.1,0.2c0,0.2-0.1,0.3-0.3,0.3
				c-0.1,0-0.2-0.1-0.3-0.1l-0.6-0.8h-0.4v0.6c0,0.2-0.1,0.3-0.3,0.3c-0.2,0-0.3-0.1-0.3-0.3V124.6z M104.4,125.7L104.4,125.7
				c0-1.3-1-2.3-2.2-2.3c-1.3,0-2.2,1-2.2,2.3v0c0,1.2,1,2.3,2.2,2.3C103.5,127.9,104.4,126.9,104.4,125.7 M99.7,125.7L99.7,125.7
				c0-1.4,1.1-2.6,2.5-2.6c1.4,0,2.5,1.2,2.5,2.5v0c0,1.4-1.1,2.6-2.5,2.6C100.8,128.2,99.7,127.1,99.7,125.7"/>
		</g>
	</g>
</g>
</svg>
